<svg xmlns="http://www.w3.org/2000/svg" xmlns:xlink="http://www.w3.org/1999/xlink" width="300" zoomAndPan="magnify" viewBox="0 0 224.87999 225" height="300" preserveAspectRatio="xMidYMid meet" version="1.0"><defs><g/><clipPath id="id1"><path d="M 111 6.636719 L 154 6.636719 L 154 63 L 111 63 Z M 111 6.636719 " clip-rule="nonzero"/></clipPath><clipPath id="id2"><path d="M 111 62 L 154 62 L 154 149.8125 L 111 149.8125 Z M 111 62 " clip-rule="nonzero"/></clipPath><clipPath id="id3"><path d="M 69 6.636719 L 112 6.636719 L 112 63 L 69 63 Z M 69 6.636719 " clip-rule="nonzero"/></clipPath><clipPath id="id4"><path d="M 70 62 L 112 62 L 112 149.8125 L 70 149.8125 Z M 70 62 " clip-rule="nonzero"/></clipPath><clipPath id="id5"><path d="M 185 81 L 218 81 L 218 149.8125 L 185 149.8125 Z M 185 81 " clip-rule="nonzero"/></clipPath><clipPath id="id6"><path d="M 153 81 L 186 81 L 186 149.8125 L 153 149.8125 Z M 153 81 " clip-rule="nonzero"/></clipPath><clipPath id="id7"><path d="M 185 59 L 218.132812 59 L 218.132812 82 L 185 82 Z M 185 59 " clip-rule="nonzero"/></clipPath><clipPath id="id8"><path d="M 37 81 L 71 81 L 71 149.8125 L 37 149.8125 Z M 37 81 " clip-rule="nonzero"/></clipPath><clipPath id="id9"><path d="M 5 81 L 38 81 L 38 149.8125 L 5 149.8125 Z M 5 81 " clip-rule="nonzero"/></clipPath></defs><g clip-path="url(#id1)"><path fill="#6c6d6d" d="M 153.554688 58.832031 L 153.554688 33.558594 L 140.996094 33.558594 L 140.996094 46.195312 L 122.53125 46.195312 L 122.53125 33.558594 L 112.886719 33.558594 L 112.886719 21.097656 L 136.191406 21.097656 L 136.191406 6.636719 L 111.734375 6.636719 L 111.734375 62.332031 L 143.828125 62.332031 Z M 153.554688 58.832031 " fill-opacity="1" fill-rule="nonzero"/></g><g clip-path="url(#id2)"><path fill="#ed3237" d="M 111.734375 62.332031 L 111.734375 75.46875 C 111.765625 75.46875 111.792969 75.464844 111.820312 75.464844 C 119.914062 75.464844 126.476562 82.027344 126.476562 90.125 L 126.476562 122.253906 L 111.738281 122.253906 L 111.738281 149.8125 L 153.242188 149.8125 L 153.242188 135.832031 L 143.828125 132.15625 L 143.828125 62.332031 Z M 111.734375 62.332031 " fill-opacity="1" fill-rule="nonzero"/></g><g clip-path="url(#id3)"><path fill="#424242" d="M 110.257812 33.558594 L 101.378906 33.558594 L 101.378906 46.195312 L 82.914062 46.195312 L 82.914062 33.558594 L 69.921875 33.558594 L 69.921875 58.832031 L 79.644531 62.332031 L 111.734375 62.332031 L 111.734375 6.636719 L 110.257812 6.636719 Z M 110.257812 33.558594 " fill-opacity="1" fill-rule="nonzero"/></g><g clip-path="url(#id4)"><path fill="#a43234" d="M 97.167969 122.253906 L 97.167969 90.125 C 97.167969 82.058594 103.679688 75.515625 111.734375 75.46875 L 111.734375 62.332031 L 79.644531 62.332031 L 79.644531 132.152344 L 70.230469 135.828125 L 70.230469 149.808594 L 111.734375 149.808594 L 111.734375 122.253906 Z M 97.167969 122.253906 " fill-opacity="1" fill-rule="nonzero"/></g><g clip-path="url(#id5)"><path fill="#f58634" d="M 185.519531 81.609375 L 185.519531 91.851562 C 185.539062 91.851562 185.5625 91.847656 185.585938 91.847656 C 191.894531 91.847656 197.011719 96.964844 197.011719 103.273438 L 197.011719 128.324219 L 185.519531 128.324219 L 185.519531 149.808594 L 217.878906 149.808594 L 217.878906 138.910156 L 210.539062 136.042969 L 210.539062 81.605469 L 185.519531 81.605469 Z M 185.519531 81.609375 " fill-opacity="1" fill-rule="nonzero"/></g><g clip-path="url(#id6)"><path fill="#aa5937" d="M 174.15625 128.328125 L 174.15625 103.277344 C 174.15625 96.988281 179.234375 91.886719 185.515625 91.851562 L 185.515625 81.609375 L 160.496094 81.609375 L 160.496094 136.046875 L 153.15625 138.914062 L 153.15625 149.8125 L 185.515625 149.8125 L 185.515625 128.328125 Z M 174.15625 128.328125 " fill-opacity="1" fill-rule="nonzero"/></g><path stroke-linecap="butt" transform="matrix(0.18646, 0, 0, 0.186446, 0.0149849, 6.638327)" fill="none" stroke-linejoin="miter" d="M 951.554406 281.784061 L 1040.003542 281.784061 " stroke="#373435" stroke-width="0.26" stroke-opacity="1" stroke-miterlimit="2.613"/><path stroke-linecap="butt" transform="matrix(0.18646, 0, 0, 0.186446, 0.0149849, 6.638327)" fill="none" stroke-linejoin="miter" d="M 791.87669 361.314546 C 793.489808 361.880227 795.689514 362.173543 796.590346 362.571614 " stroke="#373435" stroke-width="0.26" stroke-opacity="1" stroke-miterlimit="2.613"/><path fill="#424242" d="M 152.914062 59.175781 L 152.914062 78.882812 L 160.496094 81.609375 L 185.519531 81.609375 L 185.519531 59.175781 L 177.441406 59.175781 L 177.441406 69.03125 L 163.046875 69.03125 L 163.046875 59.175781 Z M 152.914062 59.175781 " fill-opacity="1" fill-rule="nonzero"/><g clip-path="url(#id7)"><path fill="#6c6d6d" d="M 185.519531 59.175781 L 185.519531 81.609375 L 210.539062 81.609375 L 218.117188 78.882812 L 218.117188 59.175781 L 208.328125 59.175781 L 208.328125 69.03125 L 193.933594 69.03125 L 193.933594 59.175781 Z M 185.519531 59.175781 " fill-opacity="1" fill-rule="nonzero"/></g><g clip-path="url(#id8)"><path fill="#00afef" d="M 37.875 81.609375 L 37.875 91.851562 C 37.894531 91.851562 37.917969 91.847656 37.941406 91.847656 C 44.25 91.847656 49.367188 96.964844 49.367188 103.273438 L 49.367188 128.324219 L 37.875 128.324219 L 37.875 149.808594 L 70.234375 149.808594 L 70.234375 138.910156 L 62.894531 136.042969 L 62.894531 81.605469 L 37.875 81.605469 Z M 37.875 81.609375 " fill-opacity="1" fill-rule="nonzero"/></g><g clip-path="url(#id9)"><path fill="#0d82ae" d="M 26.515625 128.328125 L 26.515625 103.277344 C 26.515625 96.988281 31.59375 91.886719 37.875 91.851562 L 37.875 81.609375 L 12.855469 81.609375 L 12.855469 136.046875 L 5.515625 138.914062 L 5.515625 149.8125 L 37.875 149.8125 L 37.875 128.328125 Z M 26.515625 128.328125 " fill-opacity="1" fill-rule="nonzero"/></g><path stroke-linecap="butt" transform="matrix(0.18646, 0, 0, 0.186446, 0.0149849, 6.638327)" fill="none" stroke-linejoin="miter" d="M 159.723048 281.784061 L 248.193133 281.784061 " stroke="#373435" stroke-width="0.26" stroke-opacity="1" stroke-miterlimit="2.613"/><path stroke-linecap="butt" transform="matrix(0.18646, 0, 0, 0.186446, 0.0149849, 6.638327)" fill="none" stroke-linejoin="miter" d="M 0.045332 361.314546 C 1.65845 361.880227 3.858156 362.173543 4.758988 362.571614 " stroke="#373435" stroke-width="0.26" stroke-opacity="1" stroke-miterlimit="2.613"/><path fill="#424242" d="M 5.273438 59.175781 L 5.273438 78.882812 L 12.855469 81.609375 L 37.875 81.609375 L 37.875 59.175781 L 29.796875 59.175781 L 29.796875 69.03125 L 15.402344 69.03125 L 15.402344 59.175781 Z M 5.273438 59.175781 " fill-opacity="1" fill-rule="nonzero"/><path fill="#6c6d6d" d="M 37.875 59.175781 L 37.875 81.609375 L 62.894531 81.609375 L 70.476562 78.882812 L 70.476562 59.175781 L 60.6875 59.175781 L 60.6875 69.03125 L 46.292969 69.03125 L 46.292969 59.175781 Z M 37.875 59.175781 " fill-opacity="1" fill-rule="nonzero"/><g fill="#545454" fill-opacity="1"><g transform="translate(4.741691, 187.022959)"><g><path d="M 1.109375 -30.976562 L 1.109375 -25.171875 L 3.589844 -25.171875 L 3.589844 -5.851562 L 1.109375 -5.851562 L 1.109375 0 L 15.421875 0 L 15.421875 -5.851562 L 12.71875 -5.851562 L 12.71875 -12.71875 C 16.664062 -12.71875 17.148438 -11.742188 17.148438 -7.710938 C 17.148438 -2.527344 19.941406 0.53125 25.746094 0.53125 C 30.667969 0.53125 32.21875 -2.878906 32.21875 -6.558594 L 32.21875 -8.996094 L 29.25 -8.996094 L 29.25 -7.535156 C 29.25 -6.648438 28.894531 -6.117188 28.230469 -6.117188 C 27.429688 -6.117188 27.164062 -7.222656 27.164062 -9.128906 C 27.164062 -12.320312 24.417969 -14.980469 21.359375 -15.421875 C 25.039062 -15.953125 27.785156 -18.390625 27.785156 -21.847656 C 27.785156 -26.898438 25.792969 -30.976562 15.511719 -30.976562 Z M 12.71875 -25.214844 L 14.933594 -25.214844 C 17.503906 -25.214844 18.96875 -23.886719 18.96875 -21.269531 C 18.96875 -18.921875 17.28125 -17.683594 14.710938 -17.683594 L 12.71875 -17.683594 Z M 12.71875 -25.214844 "/></g></g></g><g fill="#545454" fill-opacity="1"><g transform="translate(37.3973, 187.022959)"><g><path d="M 16.53125 0.796875 C 26.542969 0.796875 32.128906 -5.316406 32.128906 -15.332031 C 32.128906 -25.304688 27.078125 -31.820312 16.21875 -31.820312 C 7.046875 -31.820312 0.664062 -25.214844 0.664062 -15.644531 C 0.664062 -4.566406 7.269531 0.796875 16.53125 0.796875 Z M 16.53125 -6.160156 C 13.695312 -6.160156 11.609375 -9.839844 11.609375 -15.644531 C 11.609375 -21.136719 13.472656 -25.039062 16.175781 -24.992188 C 19.585938 -24.992188 21.050781 -20.695312 21.050781 -15.332031 C 21.050781 -9.839844 19.320312 -6.160156 16.53125 -6.160156 Z M 16.53125 -6.160156 "/></g></g></g><g fill="#545454" fill-opacity="1"><g transform="translate(70.18583, 187.022959)"><g><path d="M 32.039062 -23.175781 L 32.039062 -5.761719 L 29.558594 -5.761719 L 29.558594 0 L 43.5625 0 L 43.5625 -5.761719 L 41.125 -5.761719 L 41.125 -25.257812 L 43.5625 -25.257812 L 43.5625 -30.976562 L 26.679688 -30.976562 L 22.421875 -14.402344 L 17.949219 -30.976562 L 1.152344 -30.976562 L 1.152344 -25.257812 L 3.5 -25.257812 L 3.5 -5.714844 L 1.109375 -5.714844 L 1.109375 0 L 13.117188 0 L 13.117188 -5.714844 L 10.589844 -5.714844 L 10.589844 -23.175781 L 10.769531 -23.175781 C 10.902344 -20.960938 11.476562 -18.433594 11.699219 -17.683594 L 16.664062 0 L 25.925781 0 L 30.578125 -17.238281 C 30.886719 -18.257812 31.507812 -21.183594 31.863281 -23.175781 Z M 32.039062 -23.175781 "/></g></g></g><g fill="#545454" fill-opacity="1"><g transform="translate(114.849128, 187.022959)"><g><path d="M 1.109375 -30.976562 L 1.109375 -25.125 L 3.898438 -25.125 L 3.898438 -5.894531 L 1.109375 -5.894531 L 1.109375 0 L 27.828125 0 L 27.828125 -10.015625 L 20.164062 -10.015625 L 20.164062 -5.894531 L 13.074219 -5.894531 L 13.074219 -13.117188 L 21.492188 -13.117188 L 21.492188 -19.011719 L 13.074219 -19.011719 L 13.074219 -25.125 L 20.164062 -25.125 L 20.164062 -21.183594 L 27.828125 -21.183594 L 27.828125 -30.976562 Z M 1.109375 -30.976562 "/></g></g></g><g fill="#545454" fill-opacity="1"><g transform="translate(143.782799, 187.022959)"><g><path d="M 16.53125 0.796875 C 26.542969 0.796875 32.128906 -5.316406 32.128906 -15.332031 C 32.128906 -25.304688 27.078125 -31.820312 16.21875 -31.820312 C 7.046875 -31.820312 0.664062 -25.214844 0.664062 -15.644531 C 0.664062 -4.566406 7.269531 0.796875 16.53125 0.796875 Z M 16.53125 -6.160156 C 13.695312 -6.160156 11.609375 -9.839844 11.609375 -15.644531 C 11.609375 -21.136719 13.472656 -25.039062 16.175781 -24.992188 C 19.585938 -24.992188 21.050781 -20.695312 21.050781 -15.332031 C 21.050781 -9.839844 19.320312 -6.160156 16.53125 -6.160156 Z M 16.53125 -6.160156 "/></g></g></g><g fill="#545454" fill-opacity="1"><g transform="translate(176.571329, 187.022959)"><g><path d="M 10.371094 -31.066406 L 1.59375 -31.066406 L 3.234375 -17.816406 L 8.773438 -17.816406 Z M 10.371094 -31.066406 "/></g></g></g><g fill="#545454" fill-opacity="1"><g transform="translate(188.667641, 187.022959)"><g><path d="M 1.109375 0 L 8.863281 0 L 9.351562 -3.414062 C 11.035156 -1.417969 14.136719 0.664062 18.613281 0.664062 C 23.886719 0.664062 30.355469 -1.816406 30.355469 -8.730469 C 30.355469 -19.144531 12.808594 -18.082031 12.808594 -22.644531 C 12.808594 -24.195312 14.578125 -24.992188 15.863281 -24.992188 C 18.96875 -24.992188 21.539062 -23.132812 21.539062 -19.851562 L 29.558594 -19.851562 L 29.558594 -30.976562 L 21.9375 -30.976562 L 21.492188 -27.253906 C 19.71875 -30.578125 15.953125 -31.773438 12.230469 -31.773438 C 7.886719 -31.773438 1.683594 -28.804688 1.683594 -22.246094 C 1.683594 -10.945312 18.699219 -12.410156 18.699219 -8.953125 C 18.699219 -7.089844 16.484375 -6.734375 14.933594 -6.734375 C 13.074219 -6.824219 9.351562 -7.445312 9.351562 -11.167969 L 1.109375 -11.167969 Z M 1.109375 0 "/></g></g></g><g fill="#737373" fill-opacity="1"><g transform="translate(41.668747, 209.668685)"><g><path d="M 11.34375 -16.65625 L 18.3125 0 L 14.453125 0 L 12.953125 -3.578125 L 5.875 -3.578125 L 4.390625 0 L 0.515625 0 L 7.46875 -16.65625 Z M 11.609375 -6.8125 L 9.421875 -12.0625 L 7.234375 -6.8125 Z M 11.609375 -6.8125 "/></g></g></g><g fill="#737373" fill-opacity="1"><g transform="translate(60.607084, 209.668685)"><g><path d="M 7.84375 -16.65625 C 9.050781 -16.65625 10.117188 -16.4375 11.046875 -16 C 11.972656 -15.5625 12.742188 -14.96875 13.359375 -14.21875 C 13.972656 -13.46875 14.441406 -12.582031 14.765625 -11.5625 C 15.085938 -10.539062 15.25 -9.457031 15.25 -8.3125 C 15.25 -7.15625 15.078125 -6.070312 14.734375 -5.0625 C 14.398438 -4.050781 13.9375 -3.171875 13.34375 -2.421875 C 12.75 -1.671875 12.046875 -1.078125 11.234375 -0.640625 C 10.421875 -0.210938 9.535156 0 8.578125 0 L 1.125 0 L 1.125 -16.65625 Z M 7.875 -3.21875 C 8.550781 -3.21875 9.125 -3.351562 9.59375 -3.625 C 10.070312 -3.90625 10.46875 -4.28125 10.78125 -4.75 C 11.09375 -5.21875 11.320312 -5.753906 11.46875 -6.359375 C 11.625 -6.972656 11.703125 -7.617188 11.703125 -8.296875 C 11.703125 -8.972656 11.628906 -9.617188 11.484375 -10.234375 C 11.347656 -10.847656 11.125 -11.390625 10.8125 -11.859375 C 10.5 -12.335938 10.097656 -12.71875 9.609375 -13 C 9.128906 -13.28125 8.550781 -13.421875 7.875 -13.421875 L 4.703125 -13.421875 L 4.703125 -3.21875 Z M 7.875 -3.21875 "/></g></g></g><g fill="#737373" fill-opacity="1"><g transform="translate(76.772816, 209.668685)"><g><path d="M 14.5625 -16.65625 L 18.453125 -16.65625 L 11.421875 0 L 7.5 0 L 0.5 -16.65625 L 4.375 -16.65625 L 9.46875 -4.203125 Z M 14.5625 -16.65625 "/></g></g></g><g fill="#737373" fill-opacity="1"><g transform="translate(95.828634, 209.668685)"><g><path d="M 1.125 -16.65625 L 11.53125 -16.65625 L 11.53125 -13.421875 L 4.703125 -13.421875 L 4.703125 -10.40625 L 10.71875 -10.40625 L 10.71875 -7.171875 L 4.703125 -7.171875 L 4.703125 -3.21875 L 11.53125 -3.21875 L 11.53125 0 L 1.125 0 Z M 1.125 -16.65625 "/></g></g></g><g fill="#737373" fill-opacity="1"><g transform="translate(108.610842, 209.668685)"><g><path d="M 12.5 -16.65625 L 16.046875 -16.65625 L 16.046875 0 L 12.671875 0 L 4.65625 -10.875 L 4.65625 0 L 1.109375 0 L 1.109375 -16.65625 L 4.4375 -16.65625 L 12.5 -5.703125 Z M 12.5 -16.65625 "/></g></g></g><g fill="#737373" fill-opacity="1"><g transform="translate(125.880906, 209.668685)"><g><path d="M 0.546875 -16.65625 L 12.59375 -16.65625 L 12.59375 -13.421875 L 8.34375 -13.421875 L 8.34375 0 L 4.796875 0 L 4.796875 -13.421875 L 0.546875 -13.421875 Z M 0.546875 -16.65625 "/></g></g></g><g fill="#737373" fill-opacity="1"><g transform="translate(139.133055, 209.668685)"><g><path d="M 10.53125 -16.65625 L 14.078125 -16.65625 L 14.078125 -6.015625 C 14.078125 -5.179688 13.90625 -4.378906 13.5625 -3.609375 C 13.21875 -2.847656 12.742188 -2.175781 12.140625 -1.59375 C 11.546875 -1.019531 10.851562 -0.554688 10.0625 -0.203125 C 9.28125 0.140625 8.429688 0.3125 7.515625 0.3125 C 6.628906 0.3125 5.785156 0.140625 4.984375 -0.203125 C 4.179688 -0.554688 3.484375 -1.019531 2.890625 -1.59375 C 2.304688 -2.175781 1.84375 -2.847656 1.5 -3.609375 C 1.15625 -4.378906 0.984375 -5.179688 0.984375 -6.015625 L 0.984375 -16.65625 L 4.53125 -16.65625 L 4.53125 -6.71875 C 4.53125 -6.25 4.609375 -5.804688 4.765625 -5.390625 C 4.921875 -4.972656 5.128906 -4.601562 5.390625 -4.28125 C 5.660156 -3.96875 5.976562 -3.71875 6.34375 -3.53125 C 6.71875 -3.34375 7.109375 -3.25 7.515625 -3.25 C 7.941406 -3.25 8.332031 -3.34375 8.6875 -3.53125 C 9.050781 -3.71875 9.367188 -3.96875 9.640625 -4.28125 C 9.921875 -4.601562 10.140625 -4.972656 10.296875 -5.390625 C 10.453125 -5.804688 10.53125 -6.25 10.53125 -6.71875 Z M 10.53125 -16.65625 "/></g></g></g><g fill="#737373" fill-opacity="1"><g transform="translate(154.288428, 209.668685)"><g><path d="M 13.09375 -11.703125 C 13.09375 -11.171875 13.015625 -10.664062 12.859375 -10.1875 C 12.710938 -9.707031 12.503906 -9.265625 12.234375 -8.859375 C 11.972656 -8.460938 11.65625 -8.113281 11.28125 -7.8125 C 10.90625 -7.507812 10.5 -7.265625 10.0625 -7.078125 L 15.578125 0 L 11.421875 0 L 6.28125 -6.71875 L 4.671875 -6.71875 L 4.671875 0 L 1.109375 0 L 1.109375 -16.65625 L 8.296875 -16.65625 C 8.953125 -16.65625 9.570312 -16.523438 10.15625 -16.265625 C 10.75 -16.015625 11.257812 -15.664062 11.6875 -15.21875 C 12.125 -14.769531 12.46875 -14.242188 12.71875 -13.640625 C 12.96875 -13.035156 13.09375 -12.390625 13.09375 -11.703125 Z M 7.84375 -9.96875 C 8.300781 -9.96875 8.691406 -10.132812 9.015625 -10.46875 C 9.347656 -10.800781 9.515625 -11.210938 9.515625 -11.703125 C 9.515625 -12.171875 9.347656 -12.570312 9.015625 -12.90625 C 8.691406 -13.25 8.300781 -13.421875 7.84375 -13.421875 L 4.671875 -13.421875 L 4.671875 -9.96875 Z M 7.84375 -9.96875 "/></g></g></g><g fill="#737373" fill-opacity="1"><g transform="translate(170.548146, 209.668685)"><g><path d="M 1.125 -16.65625 L 11.53125 -16.65625 L 11.53125 -13.421875 L 4.703125 -13.421875 L 4.703125 -10.40625 L 10.71875 -10.40625 L 10.71875 -7.171875 L 4.703125 -7.171875 L 4.703125 -3.21875 L 11.53125 -3.21875 L 11.53125 0 L 1.125 0 Z M 1.125 -16.65625 "/></g></g></g></svg>